<?xml version="1.0" encoding="utf-8"?>
<!-- Generator: Adobe Illustrator 26.0.1, SVG Export Plug-In . SVG Version: 6.00 Build 0)  -->
<svg version="1.1" id="Layer_1" xmlns="http://www.w3.org/2000/svg" xmlns:xlink="http://www.w3.org/1999/xlink" x="0px" y="0px"
	 viewBox="0 0 500 150" style="enable-background:new 0 0 500 150;" xml:space="preserve">
<style type="text/css">
	.st0{fill:#2C3E50;}
	.st1{clip-path:url(#SVGID_00000033336887885559322930000016984041455180120458_);fill:none;stroke:#FFFFFF;stroke-width:4;}
	.st2{clip-path:url(#SVGID_00000033336887885559322930000016984041455180120458_);fill:#2C3E50;}
	.st3{clip-path:url(#SVGID_00000047774201768013616090000008154974990553074061_);fill:none;stroke:#FFFFFF;stroke-width:4;}
	.st4{clip-path:url(#SVGID_00000047774201768013616090000008154974990553074061_);fill:#2C3E50;}
</style>
<g>
	<path class="st0" d="M28.23,82.05v32.29H17.8V36.96h21.87c4.89,0,9.13,0.5,12.69,1.49c3.56,0.99,6.51,2.42,8.83,4.29
		s4.04,4.13,5.16,6.78c1.12,2.65,1.67,5.61,1.67,8.88c0,2.74-0.43,5.29-1.3,7.67s-2.12,4.51-3.75,6.4c-1.64,1.89-3.64,3.5-5.99,4.83
		c-2.36,1.33-5.03,2.34-8.02,3.02c1.3,0.76,2.45,1.85,3.46,3.29l22.57,30.73H65.7c-1.91,0-3.31-0.74-4.21-2.21L41.4,84.48
		c-0.61-0.86-1.28-1.49-2-1.86c-0.72-0.38-1.8-0.57-3.24-0.57H28.23z M28.23,74.43h10.96c3.06,0,5.75-0.37,8.07-1.11
		c2.32-0.74,4.27-1.78,5.83-3.13c1.57-1.35,2.74-2.96,3.54-4.83s1.19-3.94,1.19-6.21c0-4.61-1.52-8.08-4.56-10.42
		s-7.57-3.51-13.58-3.51H28.23V74.43z"/>
	<path class="st0" d="M106.42,58.77c3.28,0,6.3,0.55,9.07,1.65c2.77,1.1,5.17,2.68,7.18,4.75c2.02,2.07,3.59,4.63,4.73,7.67
		c1.13,3.04,1.7,6.51,1.7,10.4c0,1.51-0.16,2.52-0.49,3.02c-0.32,0.5-0.94,0.76-1.84,0.76h-36.4c0.07,3.46,0.54,6.46,1.4,9.02
		c0.86,2.56,2.05,4.69,3.56,6.4c1.51,1.71,3.31,2.99,5.4,3.83c2.09,0.85,4.43,1.27,7.02,1.27c2.41,0,4.49-0.28,6.24-0.84
		c1.75-0.56,3.25-1.16,4.51-1.81c1.26-0.65,2.31-1.25,3.16-1.81c0.85-0.56,1.58-0.84,2.19-0.84c0.79,0,1.4,0.31,1.84,0.92l2.7,3.51
		c-1.19,1.44-2.61,2.69-4.27,3.75c-1.66,1.06-3.43,1.94-5.32,2.62c-1.89,0.68-3.84,1.2-5.86,1.54c-2.02,0.34-4.01,0.51-5.99,0.51
		c-3.78,0-7.26-0.64-10.45-1.92c-3.19-1.28-5.94-3.15-8.26-5.62s-4.13-5.52-5.43-9.15c-1.3-3.64-1.94-7.81-1.94-12.53
		c0-3.82,0.58-7.38,1.75-10.69s2.85-6.18,5.05-8.61s4.88-4.34,8.05-5.72C98.89,59.47,102.46,58.77,106.42,58.77z M106.63,65.85
		c-4.64,0-8.3,1.34-10.96,4.02c-2.66,2.68-4.32,6.4-4.97,11.15h29.75c0-2.23-0.31-4.27-0.92-6.13c-0.61-1.85-1.51-3.46-2.7-4.81
		c-1.19-1.35-2.64-2.39-4.35-3.13C110.78,66.22,108.83,65.85,106.63,65.85z"/>
	<path class="st0" d="M172.67,68.66c-0.43,0.79-1.1,1.19-2,1.19c-0.54,0-1.15-0.2-1.84-0.59c-0.68-0.4-1.52-0.84-2.51-1.32
		c-0.99-0.49-2.17-0.94-3.54-1.35c-1.37-0.41-2.99-0.62-4.86-0.62c-1.62,0-3.08,0.21-4.37,0.62c-1.3,0.41-2.4,0.98-3.32,1.7
		c-0.92,0.72-1.62,1.56-2.11,2.51c-0.49,0.95-0.73,1.99-0.73,3.11c0,1.4,0.41,2.57,1.21,3.51c0.81,0.94,1.88,1.75,3.21,2.43
		c1.33,0.68,2.84,1.29,4.54,1.81s3.43,1.08,5.21,1.67c1.78,0.59,3.52,1.25,5.21,1.97c1.69,0.72,3.2,1.62,4.54,2.7s2.4,2.4,3.21,3.97
		s1.21,3.45,1.21,5.64c0,2.52-0.45,4.85-1.35,6.99c-0.9,2.14-2.23,4-4,5.56c-1.76,1.57-3.92,2.8-6.48,3.7
		c-2.56,0.9-5.51,1.35-8.86,1.35c-3.82,0-7.27-0.62-10.37-1.86c-3.1-1.24-5.72-2.83-7.88-4.78l2.27-3.67
		c0.29-0.47,0.63-0.83,1.03-1.08c0.4-0.25,0.92-0.38,1.57-0.38c0.65,0,1.33,0.25,2.05,0.76c0.72,0.5,1.59,1.06,2.62,1.67
		c1.03,0.61,2.27,1.17,3.73,1.67c1.46,0.5,3.29,0.76,5.48,0.76c1.87,0,3.51-0.24,4.91-0.73c1.4-0.49,2.57-1.14,3.51-1.97
		c0.94-0.83,1.63-1.78,2.08-2.86c0.45-1.08,0.67-2.23,0.67-3.46c0-1.51-0.41-2.76-1.21-3.75c-0.81-0.99-1.88-1.84-3.21-2.54
		c-1.33-0.7-2.85-1.31-4.56-1.84s-3.46-1.07-5.24-1.65c-1.78-0.58-3.53-1.23-5.24-1.97c-1.71-0.74-3.23-1.67-4.56-2.78
		c-1.33-1.12-2.4-2.49-3.21-4.13c-0.81-1.64-1.21-3.63-1.21-5.97c0-2.09,0.43-4.09,1.3-6.02c0.86-1.92,2.12-3.62,3.78-5.08
		c1.66-1.46,3.69-2.62,6.1-3.48s5.17-1.3,8.26-1.3c3.6,0,6.83,0.57,9.69,1.7c2.86,1.13,5.34,2.69,7.42,4.67L172.67,68.66z"/>
	<path class="st0" d="M204.8,115.2c-4.32,0-7.64-1.21-9.96-3.62c-2.32-2.41-3.48-5.89-3.48-10.42V67.68h-6.59
		c-0.58,0-1.06-0.17-1.46-0.51c-0.4-0.34-0.59-0.87-0.59-1.59v-3.83l8.96-1.13l2.21-16.9c0.07-0.54,0.31-0.98,0.7-1.32
		c0.4-0.34,0.9-0.51,1.51-0.51h4.86v18.85h15.66v6.97h-15.66v32.83c0,2.3,0.56,4.01,1.67,5.13c1.12,1.12,2.56,1.67,4.32,1.67
		c1.01,0,1.88-0.13,2.62-0.41c0.74-0.27,1.38-0.57,1.92-0.89c0.54-0.32,1-0.62,1.38-0.89c0.38-0.27,0.71-0.4,1-0.4
		c0.5,0,0.95,0.31,1.35,0.92l2.81,4.59c-1.66,1.55-3.65,2.76-5.99,3.64C209.7,114.76,207.29,115.2,204.8,115.2z"/>
	<path class="st0" d="M250.65,58.77c4,0,7.6,0.67,10.83,2s5.96,3.22,8.21,5.67s3.98,5.41,5.18,8.88c1.21,3.47,1.81,7.35,1.81,11.64
		c0,4.32-0.6,8.21-1.81,11.66c-1.21,3.46-2.93,6.41-5.18,8.86s-4.99,4.33-8.21,5.64s-6.83,1.97-10.83,1.97
		c-4,0-7.61-0.66-10.83-1.97c-3.22-1.31-5.97-3.19-8.24-5.64c-2.27-2.45-4.01-5.4-5.24-8.86s-1.84-7.34-1.84-11.66
		c0-4.28,0.61-8.16,1.84-11.64c1.22-3.47,2.97-6.43,5.24-8.88c2.27-2.45,5.01-4.34,8.24-5.67
		C243.04,59.44,246.65,58.77,250.65,58.77z M250.65,107.59c5.4,0,9.43-1.81,12.1-5.43c2.66-3.62,4-8.67,4-15.15
		c0-6.51-1.33-11.59-4-15.23c-2.67-3.64-6.7-5.45-12.1-5.45c-2.74,0-5.11,0.47-7.13,1.4c-2.02,0.94-3.7,2.29-5.05,4.05
		c-1.35,1.76-2.36,3.93-3.02,6.51c-0.67,2.57-1,5.48-1,8.72c0,3.24,0.33,6.14,1,8.69c0.67,2.56,1.67,4.71,3.02,6.45
		c1.35,1.75,3.03,3.09,5.05,4.02C245.54,107.12,247.91,107.59,250.65,107.59z"/>
	<path class="st0" d="M325.87,69.36c-0.29,0.4-0.58,0.7-0.86,0.92s-0.7,0.32-1.24,0.32s-1.12-0.22-1.75-0.67
		c-0.63-0.45-1.43-0.94-2.4-1.48c-0.97-0.54-2.15-1.04-3.54-1.49c-1.39-0.45-3.09-0.67-5.1-0.67c-2.66,0-5.02,0.48-7.07,1.43
		c-2.05,0.95-3.77,2.33-5.16,4.13c-1.39,1.8-2.43,3.98-3.13,6.53c-0.7,2.56-1.05,5.42-1.05,8.59c0,3.31,0.38,6.26,1.13,8.83
		c0.76,2.57,1.82,4.73,3.19,6.48c1.37,1.75,3.03,3.08,5,4c1.96,0.92,4.17,1.38,6.61,1.38c2.34,0,4.27-0.28,5.78-0.84
		c1.51-0.56,2.77-1.18,3.78-1.86c1.01-0.68,1.84-1.3,2.48-1.86c0.65-0.56,1.3-0.84,1.94-0.84c0.83,0,1.44,0.31,1.84,0.92l2.7,3.51
		c-2.38,2.92-5.35,5.05-8.91,6.4c-3.56,1.35-7.33,2.02-11.29,2.02c-3.42,0-6.6-0.63-9.53-1.89s-5.48-3.09-7.64-5.48
		c-2.16-2.39-3.86-5.34-5.1-8.83c-1.24-3.49-1.86-7.47-1.86-11.93c0-4.07,0.57-7.83,1.7-11.29s2.79-6.43,4.97-8.94
		c2.18-2.5,4.87-4.46,8.07-5.86c3.2-1.4,6.88-2.11,11.02-2.11c3.82,0,7.2,0.62,10.15,1.86c2.95,1.24,5.56,3,7.83,5.27L325.87,69.36z
		"/>
	<path class="st0" d="M348.98,34.8v46.82h2.48c0.72,0,1.31-0.1,1.78-0.3c0.47-0.2,0.99-0.6,1.57-1.21l17.28-18.52
		c0.54-0.58,1.08-1.04,1.62-1.4c0.54-0.36,1.26-0.54,2.16-0.54h8.75l-20.14,21.44c-0.5,0.61-1,1.15-1.49,1.62
		c-0.49,0.47-1.04,0.88-1.65,1.24c0.65,0.43,1.23,0.93,1.75,1.48c0.52,0.56,1.02,1.2,1.49,1.92l21.38,27h-8.64
		c-0.79,0-1.47-0.15-2.02-0.46c-0.56-0.31-1.09-0.78-1.59-1.43l-17.98-22.41c-0.54-0.76-1.08-1.25-1.62-1.49
		c-0.54-0.23-1.35-0.35-2.43-0.35h-2.7v26.14h-9.67V34.8H348.98z"/>
	<path class="st0" d="M414,58.77c3.28,0,6.3,0.55,9.07,1.65c2.77,1.1,5.17,2.68,7.18,4.75c2.02,2.07,3.59,4.63,4.72,7.67
		c1.13,3.04,1.7,6.51,1.7,10.4c0,1.51-0.16,2.52-0.49,3.02c-0.32,0.5-0.94,0.76-1.84,0.76h-36.4c0.07,3.46,0.54,6.46,1.4,9.02
		c0.86,2.56,2.05,4.69,3.56,6.4c1.51,1.71,3.31,2.99,5.4,3.83c2.09,0.85,4.43,1.27,7.02,1.27c2.41,0,4.49-0.28,6.24-0.84
		c1.75-0.56,3.25-1.16,4.51-1.81c1.26-0.65,2.31-1.25,3.16-1.81c0.85-0.56,1.57-0.84,2.19-0.84c0.79,0,1.4,0.31,1.84,0.92l2.7,3.51
		c-1.19,1.44-2.61,2.69-4.27,3.75c-1.66,1.06-3.43,1.94-5.32,2.62c-1.89,0.68-3.84,1.2-5.86,1.54c-2.02,0.34-4.01,0.51-5.99,0.51
		c-3.78,0-7.26-0.64-10.45-1.92c-3.19-1.28-5.94-3.15-8.26-5.62s-4.13-5.52-5.43-9.15c-1.3-3.64-1.94-7.81-1.94-12.53
		c0-3.82,0.58-7.38,1.75-10.69s2.85-6.18,5.05-8.61c2.2-2.43,4.88-4.34,8.05-5.72S410.03,58.77,414,58.77z M414.21,65.85
		c-4.64,0-8.3,1.34-10.96,4.02c-2.67,2.68-4.32,6.4-4.97,11.15h29.75c0-2.23-0.31-4.27-0.92-6.13c-0.61-1.85-1.51-3.46-2.7-4.81
		c-1.19-1.35-2.64-2.39-4.35-3.13C418.36,66.22,416.41,65.85,414.21,65.85z"/>
	<path class="st0" d="M448.93,114.34v-54.7h5.51c1.04,0,1.76,0.2,2.16,0.59c0.4,0.4,0.67,1.08,0.81,2.05l0.65,8.53
		c1.87-3.82,4.19-6.79,6.94-8.94c2.75-2.14,5.98-3.21,9.69-3.21c1.51,0,2.88,0.17,4.1,0.51c1.22,0.34,2.36,0.82,3.4,1.43l-1.24,7.18
		c-0.25,0.9-0.81,1.35-1.67,1.35c-0.5,0-1.28-0.17-2.32-0.51c-1.04-0.34-2.5-0.51-4.37-0.51c-3.35,0-6.15,0.97-8.4,2.92
		s-4.13,4.77-5.64,8.48v34.83H448.93z"/>
</g>
<g>
	<path class="st0" d="M106.42,58.77c3.28,0,6.3,0.55,9.07,1.65c2.77,1.1,5.17,2.68,7.18,4.75c2.02,2.07,3.59,4.63,4.73,7.67
		c1.13,3.04,1.7,6.51,1.7,10.4c0,1.51-0.16,2.52-0.49,3.02c-0.32,0.5-0.94,0.76-1.84,0.76h-36.4c0.07,3.46,0.54,6.46,1.4,9.02
		c0.86,2.56,2.05,4.69,3.56,6.4c1.51,1.71,3.31,2.99,5.4,3.83c2.09,0.85,4.43,1.27,7.02,1.27c2.41,0,4.49-0.28,6.24-0.84
		c1.75-0.56,3.25-1.16,4.51-1.81c1.26-0.65,2.31-1.25,3.16-1.81c0.85-0.56,1.58-0.84,2.19-0.84c0.79,0,1.4,0.31,1.84,0.92l2.7,3.51
		c-1.19,1.44-2.61,2.69-4.27,3.75c-1.66,1.06-3.43,1.94-5.32,2.62c-1.89,0.68-3.84,1.2-5.86,1.54c-2.02,0.34-4.01,0.51-5.99,0.51
		c-3.78,0-7.26-0.64-10.45-1.92c-3.19-1.28-5.94-3.15-8.26-5.62s-4.13-5.52-5.43-9.15c-1.3-3.64-1.94-7.81-1.94-12.53
		c0-3.82,0.58-7.38,1.75-10.69s2.85-6.18,5.05-8.61s4.88-4.34,8.05-5.72C98.89,59.47,102.46,58.77,106.42,58.77z M106.63,65.85
		c-4.64,0-8.3,1.34-10.96,4.02c-2.66,2.68-4.32,6.4-4.97,11.15h29.75c0-2.23-0.31-4.27-0.92-6.13c-0.61-1.85-1.51-3.46-2.7-4.81
		c-1.19-1.35-2.64-2.39-4.35-3.13C110.78,66.22,108.83,65.85,106.63,65.85z"/>
	<path class="st0" d="M172.67,68.66c-0.43,0.79-1.1,1.19-2,1.19c-0.54,0-1.15-0.2-1.84-0.59c-0.68-0.4-1.52-0.84-2.51-1.32
		c-0.99-0.49-2.17-0.94-3.54-1.35c-1.37-0.41-2.99-0.62-4.86-0.62c-1.62,0-3.08,0.21-4.37,0.62c-1.3,0.41-2.4,0.98-3.32,1.7
		c-0.92,0.72-1.62,1.56-2.11,2.51c-0.49,0.95-0.73,1.99-0.73,3.11c0,1.4,0.41,2.57,1.21,3.51c0.81,0.94,1.88,1.75,3.21,2.43
		c1.33,0.68,2.84,1.29,4.54,1.81s3.43,1.08,5.21,1.67c1.78,0.59,3.52,1.25,5.21,1.97c1.69,0.72,3.2,1.62,4.54,2.7s2.4,2.4,3.21,3.97
		s1.21,3.45,1.21,5.64c0,2.52-0.45,4.85-1.35,6.99c-0.9,2.14-2.23,4-4,5.56c-1.76,1.57-3.92,2.8-6.48,3.7
		c-2.56,0.9-5.51,1.35-8.86,1.35c-3.82,0-7.27-0.62-10.37-1.86c-3.1-1.24-5.72-2.83-7.88-4.78l2.27-3.67
		c0.29-0.47,0.63-0.83,1.03-1.08c0.4-0.25,0.92-0.38,1.57-0.38c0.65,0,1.33,0.25,2.05,0.76c0.72,0.5,1.59,1.06,2.62,1.67
		c1.03,0.61,2.27,1.17,3.73,1.67c1.46,0.5,3.29,0.76,5.48,0.76c1.87,0,3.51-0.24,4.91-0.73c1.4-0.49,2.57-1.14,3.51-1.97
		c0.94-0.83,1.63-1.78,2.08-2.86c0.45-1.08,0.67-2.23,0.67-3.46c0-1.51-0.41-2.76-1.21-3.75c-0.81-0.99-1.88-1.84-3.21-2.54
		c-1.33-0.7-2.85-1.31-4.56-1.84s-3.46-1.07-5.24-1.65c-1.78-0.58-3.53-1.23-5.24-1.97c-1.71-0.74-3.23-1.67-4.56-2.78
		c-1.33-1.12-2.4-2.49-3.21-4.13c-0.81-1.64-1.21-3.63-1.21-5.97c0-2.09,0.43-4.09,1.3-6.02c0.86-1.92,2.12-3.62,3.78-5.08
		c1.66-1.46,3.69-2.62,6.1-3.48s5.17-1.3,8.26-1.3c3.6,0,6.83,0.57,9.69,1.7c2.86,1.13,5.34,2.69,7.42,4.67L172.67,68.66z"/>
	<path class="st0" d="M204.8,115.2c-4.32,0-7.64-1.21-9.96-3.62c-2.32-2.41-3.48-5.89-3.48-10.42V67.68h-6.59
		c-0.58,0-1.06-0.17-1.46-0.51c-0.4-0.34-0.59-0.87-0.59-1.59v-3.83l8.96-1.13l2.21-16.9c0.07-0.54,0.31-0.98,0.7-1.32
		c0.4-0.34,0.9-0.51,1.51-0.51h4.86v18.85h15.66v6.97h-15.66v32.83c0,2.3,0.56,4.01,1.67,5.13c1.12,1.12,2.56,1.67,4.32,1.67
		c1.01,0,1.88-0.13,2.62-0.41c0.74-0.27,1.38-0.57,1.92-0.89c0.54-0.32,1-0.62,1.38-0.89c0.38-0.27,0.71-0.4,1-0.4
		c0.5,0,0.95,0.31,1.35,0.92l2.81,4.59c-1.66,1.55-3.65,2.76-5.99,3.64C209.7,114.76,207.29,115.2,204.8,115.2z"/>
	<path class="st0" d="M250.65,58.77c4,0,7.6,0.67,10.83,2s5.96,3.22,8.21,5.67s3.98,5.41,5.18,8.88c1.21,3.47,1.81,7.35,1.81,11.64
		c0,4.32-0.6,8.21-1.81,11.66c-1.21,3.46-2.93,6.41-5.18,8.86s-4.99,4.33-8.21,5.64s-6.83,1.97-10.83,1.97
		c-4,0-7.61-0.66-10.83-1.97c-3.22-1.31-5.97-3.19-8.24-5.64c-2.27-2.45-4.01-5.4-5.24-8.86s-1.84-7.34-1.84-11.66
		c0-4.28,0.61-8.16,1.84-11.64c1.22-3.47,2.97-6.43,5.24-8.88c2.27-2.45,5.01-4.34,8.24-5.67
		C243.04,59.44,246.65,58.77,250.65,58.77z M250.65,107.59c5.4,0,9.43-1.81,12.1-5.43c2.66-3.62,4-8.67,4-15.15
		c0-6.51-1.33-11.59-4-15.23c-2.67-3.64-6.7-5.45-12.1-5.45c-2.74,0-5.11,0.47-7.13,1.4c-2.02,0.94-3.7,2.29-5.05,4.05
		c-1.35,1.76-2.36,3.93-3.02,6.51c-0.67,2.57-1,5.48-1,8.72c0,3.24,0.33,6.14,1,8.69c0.67,2.56,1.67,4.71,3.02,6.45
		c1.35,1.75,3.03,3.09,5.05,4.02C245.54,107.12,247.91,107.59,250.65,107.59z"/>
	<path class="st0" d="M325.87,69.36c-0.29,0.4-0.58,0.7-0.86,0.92s-0.7,0.32-1.24,0.32s-1.12-0.22-1.75-0.67
		c-0.63-0.45-1.43-0.94-2.4-1.48c-0.97-0.54-2.15-1.04-3.54-1.49c-1.39-0.45-3.09-0.67-5.1-0.67c-2.66,0-5.02,0.48-7.07,1.43
		c-2.05,0.95-3.77,2.33-5.16,4.13c-1.39,1.8-2.43,3.98-3.13,6.53c-0.7,2.56-1.05,5.42-1.05,8.59c0,3.31,0.38,6.26,1.13,8.83
		c0.76,2.57,1.82,4.73,3.19,6.48c1.37,1.75,3.03,3.08,5,4c1.96,0.92,4.17,1.38,6.61,1.38c2.34,0,4.27-0.28,5.78-0.84
		c1.51-0.56,2.77-1.18,3.78-1.86c1.01-0.68,1.84-1.3,2.48-1.86c0.65-0.56,1.3-0.84,1.94-0.84c0.83,0,1.44,0.31,1.84,0.92l2.7,3.51
		c-2.38,2.92-5.35,5.05-8.91,6.4c-3.56,1.35-7.33,2.02-11.29,2.02c-3.42,0-6.6-0.63-9.53-1.89s-5.48-3.09-7.64-5.48
		c-2.16-2.39-3.86-5.34-5.1-8.83c-1.24-3.49-1.86-7.47-1.86-11.93c0-4.07,0.57-7.83,1.7-11.29s2.79-6.43,4.97-8.94
		c2.18-2.5,4.87-4.46,8.07-5.86c3.2-1.4,6.88-2.11,11.02-2.11c3.82,0,7.2,0.62,10.15,1.86c2.95,1.24,5.56,3,7.83,5.27L325.87,69.36z
		"/>
	<path class="st0" d="M348.98,34.8v46.82h2.48c0.72,0,1.31-0.1,1.78-0.3c0.47-0.2,0.99-0.6,1.57-1.21l17.28-18.52
		c0.54-0.58,1.08-1.04,1.62-1.4c0.54-0.36,1.26-0.54,2.16-0.54h8.75l-20.14,21.44c-0.5,0.61-1,1.15-1.49,1.62
		c-0.49,0.47-1.04,0.88-1.65,1.24c0.65,0.43,1.23,0.93,1.75,1.48c0.52,0.56,1.02,1.2,1.49,1.92l21.38,27h-8.64
		c-0.79,0-1.47-0.15-2.02-0.46c-0.56-0.31-1.09-0.78-1.59-1.43l-17.98-22.41c-0.54-0.76-1.08-1.25-1.62-1.49
		c-0.54-0.23-1.35-0.35-2.43-0.35h-2.7v26.14h-9.67V34.8H348.98z"/>
	<path class="st0" d="M414,58.77c3.28,0,6.3,0.55,9.07,1.65c2.77,1.1,5.17,2.68,7.18,4.75c2.02,2.07,3.59,4.63,4.72,7.67
		c1.13,3.04,1.7,6.51,1.7,10.4c0,1.51-0.16,2.52-0.49,3.02c-0.32,0.5-0.94,0.76-1.84,0.76h-36.4c0.07,3.46,0.54,6.46,1.4,9.02
		c0.86,2.56,2.05,4.69,3.56,6.4c1.51,1.71,3.31,2.99,5.4,3.83c2.09,0.85,4.43,1.27,7.02,1.27c2.41,0,4.49-0.28,6.24-0.84
		c1.75-0.56,3.25-1.16,4.51-1.81c1.26-0.65,2.31-1.25,3.16-1.81c0.85-0.56,1.57-0.84,2.19-0.84c0.79,0,1.4,0.31,1.84,0.92l2.7,3.51
		c-1.19,1.44-2.61,2.69-4.27,3.75c-1.66,1.06-3.43,1.94-5.32,2.62c-1.89,0.68-3.84,1.2-5.86,1.54c-2.02,0.34-4.01,0.51-5.99,0.51
		c-3.78,0-7.26-0.64-10.45-1.92c-3.19-1.28-5.94-3.15-8.26-5.62s-4.13-5.52-5.43-9.15c-1.3-3.64-1.94-7.81-1.94-12.53
		c0-3.82,0.58-7.38,1.75-10.69s2.85-6.18,5.05-8.61c2.2-2.43,4.88-4.34,8.05-5.72S410.03,58.77,414,58.77z M414.21,65.85
		c-4.64,0-8.3,1.34-10.96,4.02c-2.67,2.68-4.32,6.4-4.97,11.15h29.75c0-2.23-0.31-4.27-0.92-6.13c-0.61-1.85-1.51-3.46-2.7-4.81
		c-1.19-1.35-2.64-2.39-4.35-3.13C418.36,66.22,416.41,65.85,414.21,65.85z"/>
	<path class="st0" d="M448.93,114.34v-54.7h5.51c1.04,0,1.76,0.2,2.16,0.59c0.4,0.4,0.67,1.08,0.81,2.05l0.65,8.53
		c1.87-3.82,4.19-6.79,6.94-8.94c2.75-2.14,5.98-3.21,9.69-3.21c1.51,0,2.88,0.17,4.1,0.51c1.22,0.34,2.36,0.82,3.4,1.43l-1.24,7.18
		c-0.25,0.9-0.81,1.35-1.67,1.35c-0.5,0-1.28-0.17-2.32-0.51c-1.04-0.34-2.5-0.51-4.37-0.51c-3.35,0-6.15,0.97-8.4,2.92
		s-4.13,4.77-5.64,8.48v34.83H448.93z"/>
</g>
<g>
	<defs>
		<rect id="SVGID_1_" x="222.48" y="72.01" width="14" height="15"/>
	</defs>
	<clipPath id="SVGID_00000121985657835783464620000010337339207757438853_">
		<use xlink:href="#SVGID_1_"  style="overflow:visible;"/>
	</clipPath>
	
		<polyline style="clip-path:url(#SVGID_00000121985657835783464620000010337339207757438853_);fill:none;stroke:#FFFFFF;stroke-width:4;" points="
		236.48,87.01 229.48,77.61 222.48,87.01 	"/>
	<polygon style="clip-path:url(#SVGID_00000121985657835783464620000010337339207757438853_);fill:#2C3E50;" points="229.48,77.61 
		222.48,87.01 236.48,87.01 	"/>
</g>
<g>
	<defs>
		
			<rect id="SVGID_00000044896946759501374520000015208692392161905284_" x="264.71" y="87.01" transform="matrix(-1 -1.224647e-16 1.224647e-16 -1 543.4141 189.0293)" width="14" height="15"/>
	</defs>
	<clipPath id="SVGID_00000177459319994270160680000009269017563193066939_">
		<use xlink:href="#SVGID_00000044896946759501374520000015208692392161905284_"  style="overflow:visible;"/>
	</clipPath>
	
		<polyline style="clip-path:url(#SVGID_00000177459319994270160680000009269017563193066939_);fill:none;stroke:#FFFFFF;stroke-width:4;" points="
		264.71,87.01 271.71,96.42 278.71,87.01 	"/>
	<polygon style="clip-path:url(#SVGID_00000177459319994270160680000009269017563193066939_);fill:#2C3E50;" points="271.71,96.42 
		278.71,87.01 264.71,87.01 	"/>
</g>
</svg>
