<?xml version="1.0" encoding="utf-8"?>
<!-- Generator: Adobe Illustrator 26.0.1, SVG Export Plug-In . SVG Version: 6.00 Build 0)  -->
<svg version="1.1" id="Layer_1" xmlns="http://www.w3.org/2000/svg" xmlns:xlink="http://www.w3.org/1999/xlink" x="0px" y="0px"
	 viewBox="0 0 320 96" style="enable-background:new 0 0 320 96;" xml:space="preserve">
<style type="text/css">
	.st0{fill:#2C3E50;}
	.st1{clip-path:url(#SVGID_00000002362118186939309620000009526906219590494610_);fill:none;stroke:#FFFFFF;stroke-width:4;}
	.st2{clip-path:url(#SVGID_00000002362118186939309620000009526906219590494610_);fill:#2C3E50;}
	.st3{clip-path:url(#SVGID_00000091699221758507567080000000213058745221665414_);fill:none;stroke:#FFFFFF;stroke-width:4;}
	.st4{clip-path:url(#SVGID_00000091699221758507567080000000213058745221665414_);fill:#2C3E50;}
</style>
<g>
	<g>
		<path class="st0" d="M8.38,52.84V75H1.23V21.89h15.01c3.36,0,6.26,0.34,8.71,1.02c2.45,0.68,4.47,1.66,6.06,2.95
			c1.59,1.29,2.77,2.84,3.54,4.65c0.77,1.82,1.15,3.85,1.15,6.1c0,1.88-0.3,3.63-0.89,5.26c-0.59,1.63-1.45,3.09-2.58,4.39
			c-1.12,1.3-2.5,2.4-4.11,3.32c-1.62,0.91-3.45,1.61-5.5,2.08c0.89,0.52,1.68,1.27,2.37,2.26L40.48,75h-6.38
			c-1.31,0-2.27-0.51-2.89-1.52L17.43,54.51c-0.42-0.59-0.88-1.02-1.37-1.28c-0.49-0.26-1.24-0.39-2.22-0.39H8.38z M8.38,47.61h7.52
			c2.1,0,3.95-0.25,5.54-0.76c1.59-0.51,2.93-1.22,4-2.15c1.07-0.93,1.88-2.03,2.43-3.32c0.54-1.29,0.82-2.71,0.82-4.26
			c0-3.16-1.04-5.55-3.13-7.15s-5.2-2.41-9.32-2.41H8.38V47.61z"/>
		<path class="st0" d="M62.05,36.86c2.25,0,4.32,0.38,6.23,1.13c1.9,0.75,3.55,1.84,4.93,3.26c1.38,1.42,2.46,3.18,3.24,5.26
			c0.78,2.09,1.17,4.47,1.17,7.14c0,1.04-0.11,1.73-0.33,2.08c-0.22,0.35-0.64,0.52-1.26,0.52H51.05c0.05,2.37,0.37,4.44,0.96,6.19
			c0.59,1.75,1.41,3.22,2.45,4.39c1.04,1.17,2.27,2.05,3.71,2.63c1.43,0.58,3.04,0.87,4.82,0.87c1.66,0,3.08-0.19,4.28-0.57
			c1.2-0.38,2.23-0.8,3.09-1.24c0.86-0.44,1.59-0.86,2.17-1.24c0.58-0.38,1.08-0.57,1.5-0.57c0.54,0,0.96,0.21,1.26,0.63l1.85,2.41
			c-0.82,0.99-1.79,1.85-2.93,2.58c-1.14,0.73-2.35,1.33-3.65,1.8c-1.3,0.47-2.64,0.82-4.02,1.06c-1.38,0.23-2.76,0.35-4.11,0.35
			c-2.59,0-4.99-0.44-7.17-1.32c-2.19-0.88-4.08-2.16-5.67-3.85c-1.59-1.69-2.84-3.79-3.73-6.28c-0.89-2.5-1.33-5.36-1.33-8.6
			c0-2.62,0.4-5.07,1.2-7.34c0.8-2.27,1.96-4.24,3.47-5.91c1.51-1.67,3.35-2.98,5.52-3.93C56.89,37.34,59.34,36.86,62.05,36.86z
			 M62.2,41.72c-3.19,0-5.7,0.92-7.52,2.76c-1.83,1.84-2.96,4.39-3.41,7.65h20.42c0-1.53-0.21-2.93-0.63-4.21
			c-0.42-1.27-1.04-2.37-1.85-3.3c-0.82-0.93-1.81-1.64-2.98-2.15C65.05,41.97,63.71,41.72,62.2,41.72z"/>
		<path class="st0" d="M107.53,43.64c-0.3,0.54-0.75,0.82-1.37,0.82c-0.37,0-0.79-0.14-1.26-0.41c-0.47-0.27-1.04-0.57-1.72-0.91
			c-0.68-0.33-1.49-0.64-2.43-0.93c-0.94-0.28-2.05-0.43-3.34-0.43c-1.11,0-2.11,0.14-3,0.43c-0.89,0.28-1.65,0.67-2.28,1.17
			c-0.63,0.49-1.11,1.07-1.45,1.72c-0.33,0.65-0.5,1.37-0.5,2.13c0,0.96,0.28,1.77,0.83,2.41c0.56,0.64,1.29,1.2,2.21,1.67
			c0.91,0.47,1.95,0.88,3.11,1.24c1.16,0.36,2.35,0.74,3.58,1.15c1.22,0.41,2.42,0.86,3.58,1.35c1.16,0.49,2.2,1.11,3.11,1.85
			c0.91,0.74,1.65,1.65,2.21,2.72c0.56,1.08,0.83,2.37,0.83,3.87c0,1.73-0.31,3.33-0.93,4.8c-0.62,1.47-1.53,2.74-2.74,3.82
			c-1.21,1.07-2.69,1.92-4.45,2.54c-1.75,0.62-3.78,0.93-6.08,0.93c-2.62,0-4.99-0.43-7.12-1.28c-2.13-0.85-3.93-1.95-5.41-3.28
			l1.56-2.52c0.2-0.32,0.43-0.57,0.7-0.74c0.27-0.17,0.63-0.26,1.08-0.26c0.44,0,0.91,0.17,1.41,0.52c0.49,0.35,1.09,0.73,1.8,1.15
			c0.7,0.42,1.56,0.8,2.56,1.15c1,0.35,2.26,0.52,3.76,0.52c1.28,0,2.41-0.17,3.37-0.5c0.96-0.33,1.77-0.78,2.41-1.35
			c0.64-0.57,1.12-1.22,1.43-1.96c0.31-0.74,0.46-1.53,0.46-2.37c0-1.04-0.28-1.9-0.83-2.58c-0.56-0.68-1.29-1.26-2.21-1.74
			c-0.91-0.48-1.96-0.9-3.13-1.26c-1.17-0.36-2.37-0.74-3.6-1.13c-1.22-0.39-2.42-0.85-3.6-1.35c-1.17-0.51-2.22-1.14-3.13-1.91
			c-0.91-0.77-1.65-1.71-2.21-2.84c-0.56-1.12-0.83-2.49-0.83-4.1c0-1.43,0.3-2.81,0.89-4.13c0.59-1.32,1.46-2.48,2.59-3.48
			c1.14-1,2.53-1.8,4.19-2.39s3.55-0.89,5.67-0.89c2.47,0,4.69,0.39,6.65,1.17c1.96,0.78,3.66,1.85,5.1,3.21L107.53,43.64z"/>
		<path class="st0" d="M129.59,75.6c-2.97,0-5.24-0.83-6.84-2.48c-1.59-1.66-2.39-4.04-2.39-7.15V42.98h-4.52
			c-0.4,0-0.73-0.12-1-0.35c-0.27-0.23-0.41-0.6-0.41-1.09V38.9l6.15-0.78l1.52-11.6c0.05-0.37,0.21-0.67,0.48-0.91
			c0.27-0.23,0.62-0.35,1.04-0.35h3.34V38.2h10.75v4.78h-10.75v22.54c0,1.58,0.38,2.76,1.15,3.52c0.77,0.77,1.75,1.15,2.97,1.15
			c0.69,0,1.29-0.09,1.8-0.28c0.51-0.19,0.95-0.39,1.32-0.61c0.37-0.22,0.69-0.43,0.95-0.61c0.26-0.19,0.49-0.28,0.69-0.28
			c0.35,0,0.65,0.21,0.93,0.63l1.93,3.15c-1.14,1.06-2.51,1.9-4.11,2.5C132.95,75.29,131.29,75.6,129.59,75.6z"/>
		<path class="st0" d="M161.06,36.86c2.74,0,5.22,0.46,7.43,1.37c2.21,0.91,4.09,2.21,5.63,3.89s2.73,3.71,3.56,6.1
			c0.83,2.39,1.24,5.05,1.24,7.99c0,2.97-0.41,5.63-1.24,8.01c-0.83,2.37-2.01,4.4-3.56,6.08s-3.42,2.97-5.63,3.87
			c-2.21,0.9-4.69,1.35-7.43,1.35c-2.74,0-5.22-0.45-7.43-1.35c-2.21-0.9-4.1-2.19-5.65-3.87c-1.56-1.68-2.76-3.71-3.6-6.08
			c-0.84-2.37-1.26-5.04-1.26-8.01c0-2.94,0.42-5.6,1.26-7.99c0.84-2.38,2.04-4.42,3.6-6.1c1.56-1.68,3.44-2.98,5.65-3.89
			C155.84,37.32,158.32,36.86,161.06,36.86z M161.06,70.37c3.71,0,6.47-1.24,8.3-3.73c1.83-2.48,2.74-5.95,2.74-10.4
			c0-4.47-0.91-7.96-2.74-10.45c-1.83-2.5-4.6-3.74-8.3-3.74c-1.88,0-3.51,0.32-4.89,0.96c-1.38,0.64-2.54,1.57-3.47,2.78
			c-0.93,1.21-1.62,2.7-2.08,4.47c-0.46,1.77-0.69,3.76-0.69,5.99c0,2.22,0.23,4.21,0.69,5.97c0.46,1.75,1.15,3.23,2.08,4.43
			c0.93,1.2,2.08,2.12,3.47,2.76C157.55,70.05,159.18,70.37,161.06,70.37z"/>
		<path class="st0" d="M212.69,44.13c-0.2,0.27-0.4,0.48-0.59,0.63c-0.2,0.15-0.48,0.22-0.85,0.22s-0.77-0.15-1.2-0.46
			c-0.43-0.31-0.98-0.65-1.65-1.02c-0.67-0.37-1.48-0.71-2.43-1.02c-0.95-0.31-2.12-0.46-3.5-0.46c-1.83,0-3.45,0.33-4.86,0.98
			c-1.41,0.65-2.59,1.6-3.54,2.84c-0.95,1.24-1.67,2.73-2.15,4.49c-0.48,1.75-0.72,3.72-0.72,5.89c0,2.27,0.26,4.29,0.78,6.06
			c0.52,1.77,1.25,3.25,2.19,4.45c0.94,1.2,2.08,2.11,3.43,2.74c1.35,0.63,2.86,0.95,4.54,0.95c1.61,0,2.93-0.19,3.97-0.58
			c1.04-0.38,1.9-0.81,2.59-1.28c0.69-0.47,1.26-0.9,1.7-1.28c0.45-0.38,0.89-0.57,1.33-0.57c0.57,0,0.99,0.21,1.26,0.63l1.85,2.41
			c-1.63,2-3.67,3.47-6.12,4.39c-2.45,0.93-5.03,1.39-7.75,1.39c-2.35,0-4.53-0.43-6.54-1.3c-2.01-0.86-3.76-2.12-5.24-3.76
			c-1.48-1.64-2.65-3.66-3.5-6.06c-0.85-2.4-1.28-5.13-1.28-8.19c0-2.79,0.39-5.37,1.17-7.75c0.78-2.37,1.91-4.42,3.41-6.13
			c1.49-1.72,3.34-3.06,5.54-4.02c2.2-0.96,4.72-1.45,7.56-1.45c2.62,0,4.94,0.43,6.97,1.28c2.03,0.85,3.82,2.06,5.37,3.61
			L212.69,44.13z"/>
		<path class="st0" d="M228.56,20.4v32.14h1.71c0.49,0,0.9-0.07,1.22-0.2c0.32-0.14,0.68-0.41,1.08-0.83l11.86-12.71
			c0.37-0.39,0.74-0.72,1.11-0.96c0.37-0.25,0.86-0.37,1.48-0.37h6L239.2,52.17c-0.35,0.42-0.69,0.79-1.02,1.11
			c-0.33,0.32-0.71,0.61-1.13,0.85c0.44,0.3,0.85,0.64,1.2,1.02c0.36,0.38,0.7,0.82,1.02,1.32L253.95,75h-5.93
			c-0.54,0-1.01-0.1-1.39-0.32c-0.38-0.21-0.75-0.54-1.09-0.98l-12.34-15.38c-0.37-0.52-0.74-0.86-1.11-1.02
			c-0.37-0.16-0.93-0.24-1.67-0.24h-1.85V75h-6.64V20.4H228.56z"/>
		<path class="st0" d="M273.18,36.86c2.25,0,4.32,0.38,6.23,1.13c1.9,0.75,3.55,1.84,4.93,3.26c1.38,1.42,2.46,3.18,3.24,5.26
			c0.78,2.09,1.17,4.47,1.17,7.14c0,1.04-0.11,1.73-0.33,2.08c-0.22,0.35-0.64,0.52-1.26,0.52h-24.98c0.05,2.37,0.37,4.44,0.96,6.19
			c0.59,1.75,1.41,3.22,2.45,4.39c1.04,1.17,2.27,2.05,3.71,2.63c1.43,0.58,3.04,0.87,4.82,0.87c1.66,0,3.08-0.19,4.28-0.57
			c1.2-0.38,2.23-0.8,3.09-1.24c0.86-0.44,1.59-0.86,2.17-1.24c0.58-0.38,1.08-0.57,1.5-0.57c0.54,0,0.96,0.21,1.26,0.63l1.85,2.41
			c-0.82,0.99-1.79,1.85-2.93,2.58c-1.14,0.73-2.35,1.33-3.65,1.8c-1.3,0.47-2.64,0.82-4.02,1.06c-1.38,0.23-2.76,0.35-4.11,0.35
			c-2.59,0-4.99-0.44-7.17-1.32c-2.19-0.88-4.08-2.16-5.67-3.85c-1.59-1.69-2.84-3.79-3.73-6.28c-0.89-2.5-1.33-5.36-1.33-8.6
			c0-2.62,0.4-5.07,1.2-7.34s1.96-4.24,3.47-5.91c1.51-1.67,3.35-2.98,5.52-3.93C268.02,37.34,270.47,36.86,273.18,36.86z
			 M273.33,41.72c-3.19,0-5.7,0.92-7.52,2.76c-1.83,1.84-2.97,4.39-3.41,7.65h20.42c0-1.53-0.21-2.93-0.63-4.21
			c-0.42-1.27-1.04-2.37-1.85-3.3c-0.82-0.93-1.81-1.64-2.98-2.15C276.18,41.97,274.84,41.72,273.33,41.72z"/>
		<path class="st0" d="M297.17,75V37.45h3.78c0.72,0,1.21,0.14,1.48,0.41c0.27,0.27,0.46,0.74,0.56,1.41l0.44,5.86
			c1.29-2.62,2.87-4.66,4.76-6.13c1.89-1.47,4.11-2.21,6.65-2.21c1.04,0,1.98,0.12,2.82,0.35c0.84,0.24,1.62,0.56,2.34,0.98
			l-0.85,4.93c-0.17,0.62-0.56,0.93-1.15,0.93c-0.35,0-0.88-0.12-1.59-0.35c-0.72-0.23-1.72-0.35-3-0.35c-2.3,0-4.22,0.67-5.76,2
			c-1.54,1.33-2.84,3.27-3.87,5.82V75H297.17z"/>
	</g>
	<g>
		<path class="st0" d="M62.05,36.86c2.25,0,4.32,0.38,6.23,1.13c1.9,0.75,3.55,1.84,4.93,3.26c1.38,1.42,2.46,3.18,3.24,5.26
			c0.78,2.09,1.17,4.47,1.17,7.14c0,1.04-0.11,1.73-0.33,2.08c-0.22,0.35-0.64,0.52-1.26,0.52H51.05c0.05,2.37,0.37,4.44,0.96,6.19
			c0.59,1.75,1.41,3.22,2.45,4.39c1.04,1.17,2.27,2.05,3.71,2.63c1.43,0.58,3.04,0.87,4.82,0.87c1.66,0,3.08-0.19,4.28-0.57
			c1.2-0.38,2.23-0.8,3.09-1.24c0.86-0.44,1.59-0.86,2.17-1.24c0.58-0.38,1.08-0.57,1.5-0.57c0.54,0,0.96,0.21,1.26,0.63l1.85,2.41
			c-0.82,0.99-1.79,1.85-2.93,2.58c-1.14,0.73-2.35,1.33-3.65,1.8c-1.3,0.47-2.64,0.82-4.02,1.06c-1.38,0.23-2.76,0.35-4.11,0.35
			c-2.59,0-4.99-0.44-7.17-1.32c-2.19-0.88-4.08-2.16-5.67-3.85c-1.59-1.69-2.84-3.79-3.73-6.28c-0.89-2.5-1.33-5.36-1.33-8.6
			c0-2.62,0.4-5.07,1.2-7.34c0.8-2.27,1.96-4.24,3.47-5.91c1.51-1.67,3.35-2.98,5.52-3.93C56.89,37.34,59.34,36.86,62.05,36.86z
			 M62.2,41.72c-3.19,0-5.7,0.92-7.52,2.76c-1.83,1.84-2.96,4.39-3.41,7.65h20.42c0-1.53-0.21-2.93-0.63-4.21
			c-0.42-1.27-1.04-2.37-1.85-3.3c-0.82-0.93-1.81-1.64-2.98-2.15C65.05,41.97,63.71,41.72,62.2,41.72z"/>
		<path class="st0" d="M107.53,43.64c-0.3,0.54-0.75,0.82-1.37,0.82c-0.37,0-0.79-0.14-1.26-0.41c-0.47-0.27-1.04-0.57-1.72-0.91
			c-0.68-0.33-1.49-0.64-2.43-0.93c-0.94-0.28-2.05-0.43-3.34-0.43c-1.11,0-2.11,0.14-3,0.43c-0.89,0.28-1.65,0.67-2.28,1.17
			c-0.63,0.49-1.11,1.07-1.45,1.72c-0.33,0.65-0.5,1.37-0.5,2.13c0,0.96,0.28,1.77,0.83,2.41c0.56,0.64,1.29,1.2,2.21,1.67
			c0.91,0.47,1.95,0.88,3.11,1.24c1.16,0.36,2.35,0.74,3.58,1.15c1.22,0.41,2.42,0.86,3.58,1.35c1.16,0.49,2.2,1.11,3.11,1.85
			c0.91,0.74,1.65,1.65,2.21,2.72c0.56,1.08,0.83,2.37,0.83,3.87c0,1.73-0.31,3.33-0.93,4.8c-0.62,1.47-1.53,2.74-2.74,3.82
			c-1.21,1.07-2.69,1.92-4.45,2.54c-1.75,0.62-3.78,0.93-6.08,0.93c-2.62,0-4.99-0.43-7.12-1.28c-2.13-0.85-3.93-1.95-5.41-3.28
			l1.56-2.52c0.2-0.32,0.43-0.57,0.7-0.74c0.27-0.17,0.63-0.26,1.08-0.26c0.44,0,0.91,0.17,1.41,0.52c0.49,0.35,1.09,0.73,1.8,1.15
			c0.7,0.42,1.56,0.8,2.56,1.15c1,0.35,2.26,0.52,3.76,0.52c1.28,0,2.41-0.17,3.37-0.5c0.96-0.33,1.77-0.78,2.41-1.35
			c0.64-0.57,1.12-1.22,1.43-1.96c0.31-0.74,0.46-1.53,0.46-2.37c0-1.04-0.28-1.9-0.83-2.58c-0.56-0.68-1.29-1.26-2.21-1.74
			c-0.91-0.48-1.96-0.9-3.13-1.26c-1.17-0.36-2.37-0.74-3.6-1.13c-1.22-0.39-2.42-0.85-3.6-1.35c-1.17-0.51-2.22-1.14-3.13-1.91
			c-0.91-0.77-1.65-1.71-2.21-2.84c-0.56-1.12-0.83-2.49-0.83-4.1c0-1.43,0.3-2.81,0.89-4.13c0.59-1.32,1.46-2.48,2.59-3.48
			c1.14-1,2.53-1.8,4.19-2.39s3.55-0.89,5.67-0.89c2.47,0,4.69,0.39,6.65,1.17c1.96,0.78,3.66,1.85,5.1,3.21L107.53,43.64z"/>
		<path class="st0" d="M129.59,75.6c-2.97,0-5.24-0.83-6.84-2.48c-1.59-1.66-2.39-4.04-2.39-7.15V42.98h-4.52
			c-0.4,0-0.73-0.12-1-0.35c-0.27-0.23-0.41-0.6-0.41-1.09V38.9l6.15-0.78l1.52-11.6c0.05-0.37,0.21-0.67,0.48-0.91
			c0.27-0.23,0.62-0.35,1.04-0.35h3.34V38.2h10.75v4.78h-10.75v22.54c0,1.58,0.38,2.76,1.15,3.52c0.77,0.77,1.75,1.15,2.97,1.15
			c0.69,0,1.29-0.09,1.8-0.28c0.51-0.19,0.95-0.39,1.32-0.61c0.37-0.22,0.69-0.43,0.95-0.61c0.26-0.19,0.49-0.28,0.69-0.28
			c0.35,0,0.65,0.21,0.93,0.63l1.93,3.15c-1.14,1.06-2.51,1.9-4.11,2.5C132.95,75.29,131.29,75.6,129.59,75.6z"/>
		<path class="st0" d="M161.06,36.86c2.74,0,5.22,0.46,7.43,1.37c2.21,0.91,4.09,2.21,5.63,3.89s2.73,3.71,3.56,6.1
			c0.83,2.39,1.24,5.05,1.24,7.99c0,2.97-0.41,5.63-1.24,8.01c-0.83,2.37-2.01,4.4-3.56,6.08s-3.42,2.97-5.63,3.87
			c-2.21,0.9-4.69,1.35-7.43,1.35c-2.74,0-5.22-0.45-7.43-1.35c-2.21-0.9-4.1-2.19-5.65-3.87c-1.56-1.68-2.76-3.71-3.6-6.08
			c-0.84-2.37-1.26-5.04-1.26-8.01c0-2.94,0.42-5.6,1.26-7.99c0.84-2.38,2.04-4.42,3.6-6.1c1.56-1.68,3.44-2.98,5.65-3.89
			C155.84,37.32,158.32,36.86,161.06,36.86z M161.06,70.37c3.71,0,6.47-1.24,8.3-3.73c1.83-2.48,2.74-5.95,2.74-10.4
			c0-4.47-0.91-7.96-2.74-10.45c-1.83-2.5-4.6-3.74-8.3-3.74c-1.88,0-3.51,0.32-4.89,0.96c-1.38,0.64-2.54,1.57-3.47,2.78
			c-0.93,1.21-1.62,2.7-2.08,4.47c-0.46,1.77-0.69,3.76-0.69,5.99c0,2.22,0.23,4.21,0.69,5.97c0.46,1.75,1.15,3.23,2.08,4.43
			c0.93,1.2,2.08,2.12,3.47,2.76C157.55,70.05,159.18,70.37,161.06,70.37z"/>
		<path class="st0" d="M212.69,44.13c-0.2,0.27-0.4,0.48-0.59,0.63c-0.2,0.15-0.48,0.22-0.85,0.22s-0.77-0.15-1.2-0.46
			c-0.43-0.31-0.98-0.65-1.65-1.02c-0.67-0.37-1.48-0.71-2.43-1.02c-0.95-0.31-2.12-0.46-3.5-0.46c-1.83,0-3.45,0.33-4.86,0.98
			c-1.41,0.65-2.59,1.6-3.54,2.84c-0.95,1.24-1.67,2.73-2.15,4.49c-0.48,1.75-0.72,3.72-0.72,5.89c0,2.27,0.26,4.29,0.78,6.06
			c0.52,1.77,1.25,3.25,2.19,4.45c0.94,1.2,2.08,2.11,3.43,2.74c1.35,0.63,2.86,0.95,4.54,0.95c1.61,0,2.93-0.19,3.97-0.58
			c1.04-0.38,1.9-0.81,2.59-1.28c0.69-0.47,1.26-0.9,1.7-1.28c0.45-0.38,0.89-0.57,1.33-0.57c0.57,0,0.99,0.21,1.26,0.63l1.85,2.41
			c-1.63,2-3.67,3.47-6.12,4.39c-2.45,0.93-5.03,1.39-7.75,1.39c-2.35,0-4.53-0.43-6.54-1.3c-2.01-0.86-3.76-2.12-5.24-3.76
			c-1.48-1.64-2.65-3.66-3.5-6.06c-0.85-2.4-1.28-5.13-1.28-8.19c0-2.79,0.39-5.37,1.17-7.75c0.78-2.37,1.91-4.42,3.41-6.13
			c1.49-1.72,3.34-3.06,5.54-4.02c2.2-0.96,4.72-1.45,7.56-1.45c2.62,0,4.94,0.43,6.97,1.28c2.03,0.85,3.82,2.06,5.37,3.61
			L212.69,44.13z"/>
		<path class="st0" d="M228.56,20.4v32.14h1.71c0.49,0,0.9-0.07,1.22-0.2c0.32-0.14,0.68-0.41,1.08-0.83l11.86-12.71
			c0.37-0.39,0.74-0.72,1.11-0.96c0.37-0.25,0.86-0.37,1.48-0.37h6L239.2,52.17c-0.35,0.42-0.69,0.79-1.02,1.11
			c-0.33,0.32-0.71,0.61-1.13,0.85c0.44,0.3,0.85,0.64,1.2,1.02c0.36,0.38,0.7,0.82,1.02,1.32L253.95,75h-5.93
			c-0.54,0-1.01-0.1-1.39-0.32c-0.38-0.21-0.75-0.54-1.09-0.98l-12.34-15.38c-0.37-0.52-0.74-0.86-1.11-1.02
			c-0.37-0.16-0.93-0.24-1.67-0.24h-1.85V75h-6.64V20.4H228.56z"/>
		<path class="st0" d="M273.18,36.86c2.25,0,4.32,0.38,6.23,1.13c1.9,0.75,3.55,1.84,4.93,3.26c1.38,1.42,2.46,3.18,3.24,5.26
			c0.78,2.09,1.17,4.47,1.17,7.14c0,1.04-0.11,1.73-0.33,2.08c-0.22,0.35-0.64,0.52-1.26,0.52h-24.98c0.05,2.37,0.37,4.44,0.96,6.19
			c0.59,1.75,1.41,3.22,2.45,4.39c1.04,1.17,2.27,2.05,3.71,2.63c1.43,0.58,3.04,0.87,4.82,0.87c1.66,0,3.08-0.19,4.28-0.57
			c1.2-0.38,2.23-0.8,3.09-1.24c0.86-0.44,1.59-0.86,2.17-1.24c0.58-0.38,1.08-0.57,1.5-0.57c0.54,0,0.96,0.21,1.26,0.63l1.85,2.41
			c-0.82,0.99-1.79,1.85-2.93,2.58c-1.14,0.73-2.35,1.33-3.65,1.8c-1.3,0.47-2.64,0.82-4.02,1.06c-1.38,0.23-2.76,0.35-4.11,0.35
			c-2.59,0-4.99-0.44-7.17-1.32c-2.19-0.88-4.08-2.16-5.67-3.85c-1.59-1.69-2.84-3.79-3.73-6.28c-0.89-2.5-1.33-5.36-1.33-8.6
			c0-2.62,0.4-5.07,1.2-7.34s1.96-4.24,3.47-5.91c1.51-1.67,3.35-2.98,5.52-3.93C268.02,37.34,270.47,36.86,273.18,36.86z
			 M273.33,41.72c-3.19,0-5.7,0.92-7.52,2.76c-1.83,1.84-2.97,4.39-3.41,7.65h20.42c0-1.53-0.21-2.93-0.63-4.21
			c-0.42-1.27-1.04-2.37-1.85-3.3c-0.82-0.93-1.81-1.64-2.98-2.15C276.18,41.97,274.84,41.72,273.33,41.72z"/>
		<path class="st0" d="M297.17,75V37.45h3.78c0.72,0,1.21,0.14,1.48,0.41c0.27,0.27,0.46,0.74,0.56,1.41l0.44,5.86
			c1.29-2.62,2.87-4.66,4.76-6.13c1.89-1.47,4.11-2.21,6.65-2.21c1.04,0,1.98,0.12,2.82,0.35c0.84,0.24,1.62,0.56,2.34,0.98
			l-0.85,4.93c-0.17,0.62-0.56,0.93-1.15,0.93c-0.35,0-0.88-0.12-1.59-0.35c-0.72-0.23-1.72-0.35-3-0.35c-2.3,0-4.22,0.67-5.76,2
			c-1.54,1.33-2.84,3.27-3.87,5.82V75H297.17z"/>
	</g>
	<g>
		<defs>
			<rect id="SVGID_1_" y="29.79" width="9.61" height="10.3"/>
		</defs>
		<clipPath id="SVGID_00000123411162741293116420000002626621371597905597_">
			<use xlink:href="#SVGID_1_"  style="overflow:visible;"/>
		</clipPath>
		
			<polyline style="clip-path:url(#SVGID_00000123411162741293116420000002626621371597905597_);fill:none;stroke:#FFFFFF;stroke-width:4;" points="
			9.61,40.09 4.8,33.63 0,40.09 		"/>
		<polygon style="clip-path:url(#SVGID_00000123411162741293116420000002626621371597905597_);fill:#2C3E50;" points="4.8,33.63 
			0,40.09 9.61,40.09 		"/>
	</g>
	<g>
		<defs>
			
				<rect id="SVGID_00000082363816955309177730000009532606417080300172_" x="27.38" y="34.94" transform="matrix(-1 -1.224647e-16 1.224647e-16 -1 64.3657 80.1791)" width="9.61" height="10.3"/>
		</defs>
		<clipPath id="SVGID_00000118361129867497467720000016045137021861600442_">
			<use xlink:href="#SVGID_00000082363816955309177730000009532606417080300172_"  style="overflow:visible;"/>
		</clipPath>
		
			<polyline style="clip-path:url(#SVGID_00000118361129867497467720000016045137021861600442_);fill:none;stroke:#FFFFFF;stroke-width:4;" points="
			27.38,34.94 32.18,41.4 36.99,34.94 		"/>
		<polygon style="clip-path:url(#SVGID_00000118361129867497467720000016045137021861600442_);fill:#2C3E50;" points="32.18,41.4 
			36.99,34.94 27.38,34.94 		"/>
	</g>
</g>
</svg>
